<?xml version="1.0" encoding="UTF-8"?>
<!-- Created with Inkscape (http://www.inkscape.org/) -->
<svg width="1536" height="1024" version="1.1" viewBox="0 0 1536 1024" xmlns="http://www.w3.org/2000/svg">
 <path d="m439.9 608.52c-7.4125-1.5351-21.5-7.7838-21.5-9.5367 0-0.57207 0.9-4.1475 2-7.9454s2.9221-10.085 4.0491-13.972 2.3645-6.9008 2.75-6.6978c11.276 5.9399 15.022 7.1267 23.839 7.5523 10.193 0.4921 14.754-0.56389 19.431-4.4994 7.5908-6.3872 9.0424-14.627 8.9282-50.679-0.0473-14.91-0.066-44.997-0.0417-66.859l0.0443-39.75 18.75 0.079c10.312 0.0434 18.271 0.27801 17.686 0.52131-0.69017 0.28696-0.82828 2.455-0.39316 6.1711 1.0932 9.336 0.29803 138.07-0.88776 143.73-1.4882 7.0994-4.7606 16.151-7.5756 20.954-3.5792 6.1075-11.85 13.34-18.922 16.547-12.71 5.7631-32.711 7.5847-48.157 4.3859zm165.83 0.13198c-22.963-4.1666-37.907-14.795-46.458-33.044-7.206-15.377-7.1542-14.739-7.4068-91.226l-0.22542-68.25h36.757l0.0844 3.75c0.0465 2.0625 0.0439 30.508-6e-3 63.212-0.0584 38.555 0.2889 61.552 0.98774 65.405 2.4874 13.717 8.3756 22.631 17.842 27.009 3.9892 1.8451 6.4278 2.1236 18.591 2.1236 12.49 0 14.551-0.24936 19.107-2.3118 6.1118-2.7664 11.671-8.209 13.982-13.688 4.3446-10.302 4.3865-11.061 4.3989-79.75l0.0123-65.75h37.102l-0.33291 68.75-0.33293 68.75-2.5995 9.5c-2.6687 9.753-7.5801 19.352-13.169 25.738-8.3106 9.4956-22.329 16.611-38.745 19.666-10.253 1.908-29.401 1.9639-39.588 0.11555zm333.69-1.0659c-32.196-8.3164-51.234-28.485-60.769-64.38-3.4155-12.857-4.3873-42.223-1.8282-55.246 7.4084-37.699 27.24-61.937 58.576-71.59 7.8476-2.4174 9.8816-2.6168 26.5-2.5979 16.708 0.019 18.643 0.21616 26.959 2.7462 38.92 11.842 61.375 50.037 59.183 100.67-1.9 43.89-20.046 73.803-52.658 86.803-16.907 6.7397-38.438 8.1235-55.962 3.5968zm40.478-32.403c4.5274-1.781 7.7308-4.1016 13.052-9.4551 8.138-8.1875 11.31-14.188 14.994-28.367 2.1285-8.1922 2.5075-11.93 2.5528-25.174 0.059-17.156-1.367-26.434-5.7095-37.156-5.6513-13.952-16.017-24.269-28.626-28.491-7.4189-2.4842-22.288-2.2506-30.035 0.4719-18.286 6.4268-29.989 24.877-32.741 51.621-3.9854 38.718 9.0011 69.335 33.014 77.832 7.0776 2.5044 25.685 1.7924 33.5-1.2819zm-912.07 27.721c0.74046-2.3493 2.3103-6.9714 3.4886-10.271 1.1783-3.3 8.1862-24.225 15.573-46.5 7.387-22.275 18.556-55.8 24.82-74.5s12.887-38.838 14.717-44.75l3.3282-10.75h48.205l25.461 76.75c14.004 42.212 28.219 85.188 31.59 95.5l6.1286 18.75h-38.669l-4.5797-14.75c-2.5188-8.1125-5.6107-17.675-6.8709-21.25l-2.2911-6.5h-70.707l-4.3926 13.5c-2.416 7.425-5.3841 16.875-6.5959 21l-2.2033 7.5-38.348 0.5429zm112.31-70.021c-0.26248-0.6875-2.3724-7.55-4.6888-15.25-4.1262-13.716-7.029-22.978-16.558-52.828-2.6653-8.349-5.1118-14.45-5.5991-13.963-0.47602 0.47602-3.7596 10.074-7.2968 21.328-3.5372 11.254-9.1679 29.14-12.513 39.745-3.3447 10.605-6.0812 19.943-6.0812 20.75 0 1.2534 3.8836 1.4677 26.607 1.4677 20.873 0 26.504-0.26936 26.13-1.25zm77.273-21.165-0.0293-95.585h36.286c47.255 0 57.21 1.2268 73.233 9.0251 21.093 10.265 34.232 26.791 40.966 51.521 10.044 36.889 2.9291 79.3-17.25 102.82-10.337 12.047-22.882 19.516-40.913 24.357-9.6899 2.6017-10.282 2.637-51.034 3.0415l-41.23 0.40927zm80.517 61.962c13.47-3.8881 23.59-12.664 29.873-25.904 5.368-11.312 6.958-21.838 6.2902-41.643-0.48062-14.255-0.91618-17.578-3.2006-24.419-3.1642-9.4761-7.5576-16.597-13.733-22.26-10.288-9.4338-20.24-12.097-45.006-12.045l-17.75 0.0371v127.62l11.75 0.28173c19.348 0.46392 25.503 0.14031 31.777-1.6708zm438.47-46.048v-79.5h-54.82l-0.12916-16-0.12915-16h147.08v14.418c0 7.93-0.27314 15.13-0.60699 16-0.53267 1.3881-3.8996 1.5818-27.5 1.5818h-26.893v159h-37zm297-16.064v-95.564l45.75 0.36426c43.437 0.34584 46.154 0.47553 53.75 2.5656 12.34 3.3955 20.054 7.7022 28.069 15.67 5.5836 5.5506 7.6299 8.4416 9.7379 13.758 7.0555 17.792 5.8988 39.597-2.9644 55.882-3.4086 6.2628-13.441 15.756-21.183 20.045l-5.867 3.2501 2.8583 4.8478c1.5722 2.6663 10.671 18.887 20.22 36.046s18.372 32.895 19.607 34.97l2.2454 3.7711-40.677-0.54212-4.6275-8.5c-2.5451-4.675-9.249-17.275-14.898-28s-12.328-22.988-14.844-27.25l-4.574-7.75-36.102-0.00123 0.3178 36.001 0.3178 36.001h-37.136zm88-9.0298c10.899-5.0626 16.35-13.825 16.426-26.407 0.066-10.95-2.3246-17.083-8.5897-22.035-7.8336-6.192-11.94-6.9647-37.018-6.9647h-21.818v58.161l23.25-0.33217c21.071-0.30104 23.672-0.52803 27.75-2.4224zm85.76 9.0934-0.26-95.5 36.5 1.5e-4v191h-35.98zm60.065 92.25c1.0938-1.7875 5.0249-8.425 8.736-14.75s8.1999-13.975 9.9752-17c1.7754-3.025 11.074-18.522 20.665-34.437l17.437-28.937-21.158-35.063c-11.637-19.285-24.155-39.901-27.819-45.815-3.6639-5.9136-6.6616-10.976-6.6616-11.25 0-0.27395 9.4409-0.49808 20.98-0.49808h20.98l2.0884 4.0936c1.1486 2.2515 3.9268 7.089 6.1738 10.75 4.0758 6.6406 7.0186 11.865 20.789 36.906 4.0074 7.2875 7.6237 13.25 8.0362 13.25s4.5082-6.7529 9.1017-15.006c4.5934-8.2535 11.124-19.841 14.511-25.75s7.8311-13.781 9.8739-17.494l3.7142-6.75h20.935c16.476 0 20.778 0.26624 20.195 1.25-0.4071 0.6875-5.4569 8.9-11.222 18.25-11.775 19.098-14.35 23.381-31.808 52.913-10.784 18.243-12.187 21.116-10.985 22.5 0.7576 0.87262 2.6088 3.8366 4.1138 6.5866s4.216 7.475 6.0245 10.5c1.8084 3.025 11.954 20.125 22.547 38 10.592 17.875 20.568 34.422 22.167 36.77l2.9082 4.2701-42.485-0.54014-2.7314-4.6502c-4.6594-7.9328-23.027-40.96-33.145-59.6-2.1645-3.9875-4.2339-7.2416-4.5987-7.2312-0.3647 0.0103-3.0735 4.8478-6.0195 10.75-2.9461 5.9022-8.1641 15.681-11.596 21.731-3.4317 6.05-9.7366 17.412-14.011 25.25l-7.7717 14.25h-41.928z" fill="#999"/>
</svg>
